<svg width="16" height="15" viewBox="0 0 16 15" fill="none" xmlns="http://www.w3.org/2000/svg">
<path d="M15.4616 5.31973C15.3655 5.02227 15.1017 4.81101 14.7895 4.78288L10.5497 4.39789L8.8731 0.473749C8.74948 0.18616 8.46794 0 8.15513 0C7.84233 0 7.56079 0.18616 7.43717 0.474421L5.76061 4.39789L1.52007 4.78288C1.2085 4.81168 0.945343 5.02227 0.848621 5.31973C0.751899 5.61718 0.841224 5.94343 1.07692 6.14909L4.28176 8.95976L3.33673 13.1226C3.26758 13.4287 3.38638 13.7451 3.64034 13.9287C3.77685 14.0273 3.93656 14.0775 4.09762 14.0775C4.23648 14.0775 4.37422 14.0401 4.49784 13.9661L8.15513 11.7803L11.8111 13.9661C12.0786 14.1271 12.4158 14.1124 12.6693 13.9287C12.9233 13.7445 13.042 13.428 12.9729 13.1226L12.0278 8.95976L15.2327 6.14966C15.4684 5.94343 15.5584 5.61774 15.4616 5.31973Z" fill="#FFC107"/>
</svg>
